<svg width="55" height="55" viewBox="0 0 55 55" fill="none" xmlns="http://www.w3.org/2000/svg">
<path d="M27.3823 2C13.364 2 2 13.364 2 27.3823C2 41.4005 13.364 52.7646 27.3823 52.7646C41.4005 52.7646 52.7646 41.4005 52.7646 27.3823C52.7646 13.364 41.4005 2 27.3823 2Z" stroke="white" stroke-width="4" stroke-linecap="round" stroke-linejoin="round"/>
<path d="M7.76431 43.4892C7.76431 43.4892 13.4221 36.2661 27.3823 36.2661C41.3426 36.2661 47.0006 43.4892 47.0006 43.4892" stroke="white" stroke-width="4" stroke-linecap="round" stroke-linejoin="round"/>
<path d="M27.3823 27.3823C31.5879 27.3823 34.997 23.9732 34.997 19.7677C34.997 15.5622 31.5879 12.153 27.3823 12.153C23.1767 12.153 19.7676 15.5622 19.7676 19.7677C19.7676 23.9732 23.1767 27.3823 27.3823 27.3823Z" stroke="white" stroke-width="4" stroke-linecap="round" stroke-linejoin="round"/>
</svg>
